HIERARCHY
ROOT Hips
{
	OFFSET 0.000000  0.463670  0.080341
	CHANNELS 6 Xposition Yposition Zposition Zrotation Yrotation Xrotation 
	JOINT LHipJoint
	{
		OFFSET 0 0 0
		CHANNELS 3 Zrotation Yrotation Xrotation
		JOINT LeftUpLeg
		{
			OFFSET 0.949434 -0.248378 0.086503
			CHANNELS 3 Zrotation Yrotation Xrotation
			JOINT LeftLeg
			{
				OFFSET -0.076513 -3.879421 -0.177038
				CHANNELS 3 Zrotation Yrotation Xrotation
				JOINT LeftFoot
				{
					OFFSET -0.188964 -3.680973 -0.122632
					CHANNELS 3 Zrotation Yrotation Xrotation
					JOINT LeftToeBase
					{
						OFFSET 0.055451 -0.524480 1.120382
						CHANNELS 3 Zrotation Yrotation Xrotation
						End Site
						{
							OFFSET 0.007944 -0.006006 0.139660
						}
					}
				}
			}
		}
	}
	JOINT RHipJoint
	{
		OFFSET 0 0 0
		CHANNELS 3 Zrotation Yrotation Xrotation
		JOINT RightUpLeg
		{
			OFFSET -0.949434 -0.248378 0.086503
			CHANNELS 3 Zrotation Yrotation Xrotation
			JOINT RightLeg
			{
				OFFSET 0.076513 -3.879421 -0.177038
				CHANNELS 3 Zrotation Yrotation Xrotation
				JOINT RightFoot
				{
					OFFSET 0.188964 -3.680973 -0.122632
					CHANNELS 3 Zrotation Yrotation Xrotation
					JOINT RightToeBase
					{
						OFFSET -0.055451 -0.524480 1.120382
						CHANNELS 3 Zrotation Yrotation Xrotation
						End Site
						{
							OFFSET -0.007944 -0.006006 0.139660
						}
					}
				}
			}
		}
	}
	JOINT LowerBack
	{
		OFFSET 0 0 0
		CHANNELS 3 Zrotation Yrotation Xrotation
		JOINT Spine
		{
			OFFSET 0.000000 0.677144 0.028277
			CHANNELS 3 Zrotation Yrotation Xrotation
			JOINT Spine1
			{
				OFFSET 0.000000 2.156116 -0.508617
				CHANNELS 3 Zrotation Yrotation Xrotation
				JOINT Neck
				{
					OFFSET 0 0 0
					CHANNELS 3 Zrotation Yrotation Xrotation
					JOINT Neck1
					{
						OFFSET 0.000000 1.781871 0.216275
						CHANNELS 3 Zrotation Yrotation Xrotation
						JOINT Head
						{
							OFFSET 0.000000 1.015906 -0.026879
							CHANNELS 3 Zrotation Yrotation Xrotation
							End Site
							{
								OFFSET 0.000000 0.339197 0.983632
							}
						}
					}
				}
				JOINT LeftShoulder
				{
					OFFSET 0 0 0
					CHANNELS 3 Zrotation Yrotation Xrotation
					JOINT LeftArm
					{
						OFFSET 1.565866 1.184736 0.289545
						CHANNELS 3 Zrotation Yrotation Xrotation
						JOINT LeftForeArm
						{
							OFFSET 1.930940 -0.176441 -0.109244
							CHANNELS 3 Zrotation Yrotation Xrotation
							JOINT LeftHand
							{
								OFFSET 2.263412 -0.058986 0.122483
								CHANNELS 3 Zrotation Yrotation Xrotation
								JOINT LeftFingerBase
								{
									OFFSET 0 0 0
									CHANNELS 3 Zrotation Yrotation Xrotation
									JOINT LeftHandIndex1
									{
										OFFSET 0.944218 0.017559 0.358417
										CHANNELS 3 Zrotation Yrotation Xrotation
										End Site
										{
											OFFSET 0.237801 -0.022714 0.035813
										}
									}
								}
								JOINT LThumb
								{
									OFFSET 0 0 0
									CHANNELS 3 Zrotation Yrotation Xrotation
									End Site
									{
										OFFSET 0.234930 -0.092931 0.244282
									}
								}
							}
						}
					}
				}
				JOINT RightShoulder
				{
					OFFSET 0 0 0
					CHANNELS 3 Zrotation Yrotation Xrotation
					JOINT RightArm
					{
						OFFSET -1.565866 1.184736 0.289545
						CHANNELS 3 Zrotation Yrotation Xrotation
						JOINT RightForeArm
						{
							OFFSET -1.930940 -0.176441 -0.109244
							CHANNELS 3 Zrotation Yrotation Xrotation
							JOINT RightHand
							{
								OFFSET -2.263412 -0.058986 0.122483
								CHANNELS 3 Zrotation Yrotation Xrotation
								JOINT RightFingerBase
								{
									OFFSET 0 0 0
									CHANNELS 3 Zrotation Yrotation Xrotation
									JOINT RightHandIndex1
									{
										OFFSET -0.944218 0.017559 0.358417
										CHANNELS 3 Zrotation Yrotation Xrotation
										End Site
										{
											OFFSET -0.237801 -0.022714 0.035813
										}
									}
								}
								JOINT RThumb
								{
									OFFSET 0 0 0
									CHANNELS 3 Zrotation Yrotation Xrotation
									End Site
									{
										OFFSET -0.234930 -0.092931 0.244282
									}
								}
							}
						}
					}
				}
			}
		}
	}
}
MOTION
Frames: 6
Frame Time: .0083333
-4.492984 9.127624 4.988067 200.641006 149.947998 194.115997 0.000000 0.000000 0.000000 34.916500 -2.315900 -11.478200 5.811900 14.243600 44.222099 4.373600 10.189100 -43.769402 7.740000 15.924700 51.620701 0.000000 0.000000 0.000000 -12.434300 -1.338500 -34.033699 -6.379000 -14.785800 46.484299 -1.949500 -20.871201 -40.415901 -1.505300 -7.749000 21.954399 -14.000300 -3.103000 -14.178500 -6.953200 -2.127000 -8.472900 0.132000 -0.625700 -0.984200 -5.343000 -5.669300 4.127200 4.375800 -8.683900 18.354000 1.409500 -3.710400 5.643801 -0.000000 -0.000000 0.000000 -17.200300 2.609900 3.060100 8.922000 -15.036000 -1.179800 -0.000000 -0.000000 50.469501 -0.438800 28.702801 -0.210800 -7.125000 0.000000 -0.000000 -33.058102 55.429600 -9.192000 -0.000000 -0.000000 0.000000 35.727901 -7.972600 -102.828796 -6.346700 10.839200 -0.602700 0.000000 0.000000 123.630997 17.291500 1.324500 0.412300 7.125000 -0.000000 -0.000000 32.229599 -27.479500 16.263500
-4.500829 9.024254 5.034696 199.386002 152.212006 194.222000 0.000000 0.000000 0.000000 34.450401 -4.513800 -12.743600 5.725000 14.156400 43.867699 3.915900 11.688400 -42.588402 7.591600 15.810500 51.077900 0.000000 0.000000 0.000000 -11.481000 0.127700 -37.274101 -7.313200 -15.590100 50.049099 -2.027500 -19.956800 -39.946400 -1.211900 -6.983600 19.666700 -12.479500 -2.738400 -13.822400 -6.879600 -1.987100 -9.013100 -0.569800 -0.568400 -1.784800 -4.714200 -5.138600 3.560700 4.244700 -7.997500 18.546600 1.351800 -3.340900 5.789000 -0.000000 -0.000000 0.000000 -18.640800 1.135600 0.401400 8.682600 -14.653200 -1.118500 -0.000000 -0.000000 52.886200 0.703800 28.553301 0.336400 -7.125000 0.000000 -0.000000 -31.865299 55.526901 -8.885300 -0.000000 -0.000000 0.000000 36.236401 -6.775700 -100.030502 -6.216000 10.622000 -0.578400 0.000000 0.000000 121.254997 16.050900 1.909600 0.549300 7.125000 -0.000000 -0.000000 31.277000 -27.062799 15.976900
-4.494199 8.923646 5.074917 197.932007 154.444000 193.880005 0.000000 0.000000 0.000000 34.237999 -6.963700 -13.793900 5.761700 14.193400 44.017799 3.239800 14.306600 -41.168201 7.487400 15.728900 50.694500 0.000000 0.000000 0.000000 -10.477900 1.665200 -39.683800 -8.231900 -16.287201 53.393600 -2.151300 -19.077999 -39.754002 -0.907600 -6.071000 16.990499 -10.711500 -2.192800 -13.347100 -6.797200 -1.606000 -9.294200 -1.375600 -0.433400 -2.372900 -4.473000 -4.775400 3.269700 4.616100 -7.650500 18.351799 1.527700 -3.113400 5.740700 -0.000000 0.000000 0.000000 -20.167101 -0.516400 -1.535300 8.588500 -14.502300 -1.094800 -0.000000 -0.000000 55.033798 1.890500 27.992201 0.887600 -7.125000 0.000000 -0.000000 -30.314899 55.278500 -8.200100 -0.000000 0.000000 0.000000 36.813900 -5.661500 -98.422997 -6.106500 10.439600 -0.558400 0.000000 0.000000 119.875999 14.450600 2.529200 0.651500 7.125000 -0.000000 -0.000000 30.081600 -26.629000 15.524700
-4.477403 8.832597 5.110000 196.367004 156.136993 192.766998 0.000000 0.000000 0.000000 34.263000 -9.660800 -14.572300 5.861900 14.293200 44.424999 2.260900 17.997299 -39.356300 7.249900 15.538800 49.813301 0.000000 0.000000 0.000000 -9.287300 2.995300 -40.564999 -9.018400 -16.819599 56.153900 -2.300100 -18.518999 -39.977402 -0.811200 -5.747500 16.053699 -8.774300 -1.667600 -12.361300 -6.685300 -1.260500 -9.019400 -2.249500 -0.355600 -2.614500 -4.393600 -4.497800 2.679700 5.164100 -7.446300 18.082001 1.777200 -2.939500 5.758600 0.000000 -0.000000 0.000000 -21.688801 -2.406800 -1.879500 8.599200 -14.519400 -1.097500 -0.000000 -0.000000 55.836201 3.375000 27.380400 1.553600 -7.125000 0.000000 -0.000000 -28.455999 55.033199 -7.456500 0.000000 -0.000000 0.000000 37.392101 -4.556300 -97.219299 -5.998500 10.259700 -0.539000 0.000000 0.000000 119.046997 12.857600 3.832800 0.874100 7.125000 -0.000000 -0.000000 28.715500 -25.563400 15.447200
-4.453315 8.746851 5.145856 195.009003 157.880997 191.699005 0.000000 0.000000 0.000000 34.038601 -11.816200 -15.531100 5.986300 14.415100 44.926800 0.578600 23.175200 -36.005798 6.616000 14.999800 47.406601 0.000000 0.000000 0.000000 -8.183300 4.171700 -40.931499 -9.647400 -17.206800 58.303299 -2.466800 -18.061100 -40.376499 -0.776800 -5.627200 15.706600 -7.039100 -1.274500 -11.399400 -6.457300 -1.016600 -8.666900 -2.917800 -0.318700 -2.753200 -4.394900 -4.104600 2.022400 5.496600 -6.953500 17.943100 2.001700 -2.684500 5.830601 -0.000000 -0.000000 0.000000 -23.620100 -4.479600 -3.579900 8.484700 -14.335400 -1.068900 -0.000000 -0.000000 58.431400 4.342100 27.032400 1.976500 -7.125000 0.000000 -0.000000 -27.286699 54.911400 -7.030300 -0.000000 -0.000000 0.000000 37.781898 -3.614200 -92.375801 -5.806000 9.938200 -0.505200 0.000000 0.000000 115.374001 11.848300 4.867400 1.019800 7.125000 -0.000000 -0.000000 27.812300 -24.687300 15.484200
-4.438840 8.691658 5.191602 193.709000 160.205994 190.662994 0.000000 0.000000 0.000000 33.440800 -12.980500 -16.124100 6.035900 14.463000 45.125500 -0.756600 26.349899 -32.598202 5.819600 14.251200 44.253300 0.000000 0.000000 0.000000 -6.827000 4.553100 -41.008701 -10.046600 -17.435900 59.643902 -2.659400 -16.984800 -40.419102 -0.684500 -5.289700 14.736700 -5.332800 -0.738700 -10.382200 -6.247200 -0.559100 -8.458800 -3.589500 -0.168200 -3.074000 -4.272200 -3.654200 1.708700 5.753000 -6.385400 17.746700 2.189900 -2.397700 5.765200 -0.000000 0.000000 0.000000 -25.404499 -6.159400 -3.409900 8.572000 -14.475800 -1.090700 -0.000000 -0.000000 59.601200 4.372300 26.657900 1.964800 -7.125000 0.000000 -0.000000 -27.001499 54.585701 -6.727100 -0.000000 0.000000 0.000000 38.062302 -2.749800 -88.552299 -5.675100 9.719100 -0.482900 0.000000 0.000000 113.011002 10.938600 5.868000 1.132000 7.125000 -0.000000 -0.000000 26.995701 -23.826200 15.529600
